<svg fill="none" height="52" width="212" xmlns="http://www.w3.org/2000/svg"><path d="m51.564 22.326v-5.146l-5.062.277a17.331 17.331 0 0 0 -.752-3.158l4.282-2.844-2.283-3.898-4.626 1.936a15.517 15.517 0 0 0 -2.088-2.135l2.798-3.54-3.787-2.101-3.522 2.946a18.34 18.34 0 0 0 -2.879-.89l1.18-3.489-4.42-.284-2.15 3.296a24.78 24.78 0 0 0 -3.14.313l-.242-2.936-4.355 1.255-.804 3.15a30.038 30.038 0 0 0 -2.96 1.31l-1.353-2.106-3.815 2.424.389 2.664a33.185 33.185 0 0 0 -2.466 2.046l-.01.008-2.148-1.148-2.965 3.24 1.386 1.953.164.232c.36-.423.718-.848 1.099-1.253a29.478 29.478 0 0 1 5.148-4.41c1.892-1.25 3.933-2.288 6.088-3.027a22.52 22.52 0 0 1 6.7-1.278c2.287-.076 4.607.243 6.767 1.062 2.158.806 4.149 2.116 5.691 3.854 1.547 1.73 2.617 3.87 3.155 6.116.543 2.252.584 4.593.28 6.868-.645 4.564-2.754 8.825-5.674 12.324a29.058 29.058 0 0 1 -4.965 4.692 26.847 26.847 0 0 1 -5.942 3.358c-2.111.861-4.337 1.451-6.604 1.694-2.263.245-4.58.151-6.793-.415-2.207-.566-4.297-1.62-6.012-3.113a13.36 13.36 0 0 1 -2.26-2.531.917.917 0 0 0 -.03-.052l-.314.404-2.27 2.936 2.301 3.027 2.93-2.32a15.857 15.857 0 0 0 2.214 1.67l-1.323 3.716 3.802 1.803 2.277-3.458c.987.264 2.025.457 3.108.57l.133 4.062h4.956l.973-4.238a27.105 27.105 0 0 0 3.564-.803l1.984 3.744 5.32-2.17-.905-4.338a32.275 32.275 0 0 0 3.363-2.22l3.807 2.528 4.501-4.167-2.946-3.431a31.19 31.19 0 0 0 2.412-3.262l5.01.642 2.53-5.295-4.488-1.709c.39-1.19.69-2.393.888-3.603l5.164-1.352h-.01z" fill="#5365c6"/><g fill="#00142b"><path d="m5.01 41.995c1.727 1.42 3.797 2.388 5.965 2.879 2.166.506 4.423.563 6.63.284 2.208-.276 4.369-.89 6.412-1.767a28.322 28.322 0 0 0 10.56-7.937c2.823-3.419 4.827-7.56 5.425-11.94.308-2.182.276-4.424-.224-6.558-.499-2.132-1.496-4.15-2.944-5.788-1.443-1.644-3.314-2.896-5.367-3.677-2.057-.78-4.275-1.127-6.487-1.096-2.216.037-4.428.431-6.542 1.136-2.121.683-4.141 1.675-6.03 2.865a29.087 29.087 0 0 0 -5.214 4.214c-.397.397-.77.814-1.145 1.232l-.014.015.079.11.013-.013a27.361 27.361 0 0 1 4.436-3.956s.008-.005.01-.008c2.414-1.714 5.146-3.043 8.055-3.784 10.287-2.62 19.216 3.13 18.744 13.762-.507 11.393-11.307 21.726-22.626 22.25-3.113.144-5.848-.5-8.082-1.724a12.527 12.527 0 0 1 -3.835-3.238l-.175.227.054.088c.66.9 1.436 1.723 2.302 2.43v-.005z"/><path d="m15.748 23.323-5.514-6.123s-3.59 4.46.634 12.207l7.218-6.537-2.338.452zm-.608 1.252-4.457-4.955a.747.747 0 0 1 -.19-.391l-.139-.796 5.125 5.69.162-.03-.504.482zm10.648 14.5c-.824.6-1.68 1.149-2.565 1.642l-.344-.93a1.49 1.49 0 0 1 2.805-1.004l.107.292z"/><path d="m26.919 15.07c-3.393-5.47-10.182-3.657-10.182-3.657l5.224 5.433-1.318 4.702-10.717 9.705c.587 1.63 5.242.918 7.453 3.473 1.383 1.594 2.802 4.083 4.13 6.847.468-.212.934-.439 1.389-.684l-.363-.979a1.858 1.858 0 0 1 1.12-2.371 1.858 1.858 0 0 1 2.371 1.119l.068.19c.308-.232.613-.474.908-.717l-.146-.386c-1.305-3.646-.882-7.745-.472-11.714.41-3.982.798-7.74-.718-10.187-1.498-2.414-5.06-3.684-7.04-3.786 2.035-.138 5.461.198 7.507 3.496 1.615 2.607 1.219 6.459.799 10.535-.405 3.906-.822 7.943.443 11.473l.076.193c.25-.216.493-.433.736-.66-2.388-6.998 2.098-16.59-1.271-22.023l.003-.003zm-12.759 17.05c-1.456-.3-2.912-.848-2.912-.848l1.908-1.76 3.113.852zm7.487 1.35a.456.456 0 0 1 -.65.007l-3.609-3.53a.46.46 0 0 1 .645-.658l3.608 3.53a.46.46 0 0 1 .006.65zm1.187-1.154a.46.46 0 0 1 -.65.008l-3.609-3.53a.46.46 0 0 1 .645-.658l3.606 3.53c.18.178.188.468.008.65zm1.289-.96a.456.456 0 0 1 -.65.005l-3.608-3.528a.46.46 0 0 1 .645-.657l3.605 3.53c.18.175.188.467.008.65zm2.043-11.727s.034.65-.073 1.874l-4.67-.261.443-1.613zm37.639 8.828v-18.172h3.556l6.594 10.747-2.31-.026 6.698-10.721h3.426v18.172h-3.816v-6.153c0-1.575.035-2.994.104-4.257a44.05 44.05 0 0 1 .415-3.739l.442 1.22-5.322 8.23h-1.74l-5.191-8.178.415-1.272a29.81 29.81 0 0 1 .415 3.583c.087 1.229.13 2.7.13 4.413v6.152h-3.816zm21.548 0 7.139-18.172h3.479l7.087 18.172h-3.972l-3.686-9.787a185.45 185.45 0 0 0 -.389-1.09 968.763 968.763 0 0 0 -.882-2.752c-.122-.45-.226-.814-.312-1.09l.7-.027c-.103.381-.224.788-.362 1.22-.122.416-.26.848-.416 1.298-.138.45-.285.883-.441 1.298-.139.416-.277.814-.416 1.195l-3.66 9.735h-3.868zm3.323-3.817 1.298-3.167h8.281l1.324 3.167h-10.902zm22.384 4.076a6.885 6.885 0 0 1 -1.818-.233 5.603 5.603 0 0 1 -1.557-.65 6.689 6.689 0 0 1 -1.272-1.038 6.624 6.624 0 0 1 -.961-1.35l2.285-2.388c.381.536.727.96 1.038 1.272.329.294.649.502.961.623.329.121.675.182 1.038.182.485 0 .909-.113 1.272-.338.364-.225.649-.536.857-.934a2.87 2.87 0 0 0 .311-1.35v-8.775h-3.348v-3.452h9.942v3.452h-2.803v9.19c0 .865-.148 1.653-.442 2.362a5.15 5.15 0 0 1 -1.246 1.818c-.536.502-1.168.9-1.895 1.194-.71.277-1.497.415-2.362.415zm13.763-.26v-18.169h12.253v3.426h-8.437v11.319h8.619v3.427h-12.435zm1.817-7.606v-3.323h9.19v3.323zm26.499 7.607-5.607-8.126-7.243-10.046h4.803l5.503 8.021 7.347 10.15h-4.803zm-12.98 0 6.932-9.917 2.959 2.103-5.348 7.814zm10.852-8.411-2.934-2.025 5.062-7.736h4.543l-6.671 9.76zm14.309 8.41v-14.666h-5.244v-3.504h14.589v3.504h-5.451v14.668h-3.894zm13.133 0v-3.346h3.037v-11.476h-3.037v-3.348h9.943v3.348h-3.012v11.476h3.012v3.348h-9.943zm22.81.26c-1.333 0-2.562-.225-3.687-.675a9.043 9.043 0 0 1 -2.907-1.947 9.05 9.05 0 0 1 -1.895-2.985c-.433-1.142-.649-2.397-.649-3.764 0-1.333.233-2.562.701-3.687a8.98 8.98 0 0 1 1.973-2.985 9.05 9.05 0 0 1 2.959-1.973c1.142-.467 2.38-.701 3.712-.701.866 0 1.714.121 2.544.363a7.563 7.563 0 0 1 2.311 1.039c.709.45 1.315.978 1.817 1.583l-2.44 2.726c-.606-.658-1.264-1.16-1.973-1.505a5.144 5.144 0 0 0 -2.285-.52c-.744 0-1.445.139-2.102.416a4.86 4.86 0 0 0 -1.688 1.142 5.483 5.483 0 0 0 -1.142 1.791c-.277.692-.415 1.463-.415 2.31 0 .866.129 1.653.389 2.363.277.692.666 1.29 1.168 1.791a5.475 5.475 0 0 0 1.791 1.142c.71.26 1.489.39 2.337.39.554 0 1.082-.078 1.583-.234a6.1 6.1 0 0 0 2.648-1.61l1.895 3.038c-.398.467-.951.891-1.661 1.272-.71.38-1.497.684-2.362.909-.866.207-1.74.311-2.622.311z"/></g><path d="m61.506 42.735 2.142-5.451h1.043l2.126 5.451h-1.191l-1.106-2.935-.117-.327-.132-.413-.133-.412a8.728 8.728 0 0 0 -.093-.327l.21-.008a8.805 8.805 0 0 1 -.109.366 8.387 8.387 0 0 1 -.125.39 6.896 6.896 0 0 1 -.132.389c-.042.124-.083.244-.125.358l-1.098 2.92h-1.16zm.997-1.144.39-.95h2.483l.398.95zm10.293 1.191c-.441 0-.836-.09-1.184-.272a2.122 2.122 0 0 1 -.81-.764 2.1 2.1 0 0 1 -.296-1.105v-3.365h1.169v3.294c0 .218.049.416.148.592.104.172.241.31.413.413.17.104.358.156.56.156.213 0 .405-.052.576-.156a1.146 1.146 0 0 0 .569-1.005v-3.294h1.13v3.364a2.1 2.1 0 0 1 -.297 1.106c-.192.322-.46.577-.802.764a2.472 2.472 0 0 1 -1.176.272zm7.888-.047v-4.4h-1.573v-1.051h4.377v1.051h-1.635v4.4zm9.063.078c-.4 0-.771-.07-1.114-.21a2.686 2.686 0 0 1 -.88-.584 2.82 2.82 0 0 1 -.576-.896 3.055 3.055 0 0 1 -.203-1.129c0-.405.068-.779.203-1.121a2.82 2.82 0 0 1 .576-.896 2.63 2.63 0 0 1 .88-.592c.343-.14.714-.21 1.114-.21s.766.07 1.098.21a2.63 2.63 0 0 1 1.456 1.488c.14.342.21.719.21 1.129 0 .4-.07.77-.21 1.113a2.627 2.627 0 0 1 -1.456 1.488c-.332.14-.698.21-1.098.21zm0-1.106c.228 0 .438-.041.63-.124a1.57 1.57 0 0 0 .499-.358c.145-.156.257-.338.335-.546.078-.207.117-.433.117-.677 0-.25-.04-.478-.117-.686a1.627 1.627 0 0 0 -.335-.545 1.424 1.424 0 0 0 -.499-.358 1.492 1.492 0 0 0 -.63-.132 1.545 1.545 0 0 0 -1.472 1.035 1.937 1.937 0 0 0 -.117.686c0 .327.067.62.202.88.14.254.33.457.569.607.239.146.511.218.818.218zm6.937 1.028v-5.451h2.414c.343 0 .65.075.919.226.276.15.494.358.655.623.16.26.241.558.241.895 0 .327-.081.623-.241.888a1.771 1.771 0 0 1 -.655.631c-.27.156-.576.234-.919.234h-1.292v1.954zm3.1 0-1.387-2.468 1.192-.195 1.542 2.671zm-1.978-2.912h1.246c.14 0 .262-.031.366-.094a.664.664 0 0 0 .249-.272.8.8 0 0 0 .093-.39.724.724 0 0 0 -.412-.67.966.966 0 0 0 -.452-.1h-1.09zm7.454 2.912v-5.451h3.676v1.028h-2.531v3.395h2.585v1.028zm.545-2.282v-.996h2.757v.996zm7.514 2.282v-5.451h2.313c.327 0 .62.078.88.233.259.151.465.359.615.623.156.26.234.556.234.888 0 .338-.078.644-.234.92a1.75 1.75 0 0 1 -.615.646c-.26.155-.553.233-.88.233h-1.145v1.908zm1.152-2.967h1.036c.12 0 .229-.03.327-.093a.724.724 0 0 0 .335-.631.7.7 0 0 0 -.335-.615.597.597 0 0 0 -.327-.094h-1.036zm5.895 2.967 2.142-5.451h1.043l2.126 5.451h-1.191l-1.106-2.935a36.62 36.62 0 0 0 -.117-.327l-.132-.413-.133-.412a8.313 8.313 0 0 0 -.093-.327l.21-.008a7.974 7.974 0 0 1 -.109.366 8.732 8.732 0 0 1 -.124.39 6.974 6.974 0 0 1 -.133.389c-.041.124-.083.244-.124.358l-1.099 2.92h-1.16zm.997-1.144.389-.95h2.485l.397.95zm8.062 1.144v-1.004h.912v-3.443h-.912v-1.004h2.983v1.005h-.903v3.442h.903v1.004zm7.378 0v-5.451h2.414c.343 0 .649.075.919.226.275.15.493.358.654.623.161.26.242.558.242.895 0 .327-.081.623-.242.888a1.804 1.804 0 0 1 -1.573.864h-1.293v1.955zm3.1 0-1.387-2.468 1.192-.195 1.542 2.671zm-1.979-2.912h1.246a.694.694 0 0 0 .366-.094.659.659 0 0 0 .25-.272.803.803 0 0 0 .093-.39.721.721 0 0 0 -.413-.67.961.961 0 0 0 -.451-.1h-1.091zm14.718 2.99c-.508 0-.945-.09-1.308-.272a2.699 2.699 0 0 1 -.927-.81l.732-.826c.255.353.507.595.756.724.254.125.527.187.817.187.161 0 .304-.023.429-.07a.719.719 0 0 0 .304-.194.412.412 0 0 0 .116-.288.53.53 0 0 0 -.21-.413.995.995 0 0 0 -.241-.148 1.714 1.714 0 0 0 -.312-.117 5.025 5.025 0 0 0 -.374-.086 3.79 3.79 0 0 1 -.763-.241 1.907 1.907 0 0 1 -.545-.358 1.382 1.382 0 0 1 -.327-.483 1.811 1.811 0 0 1 -.101-.623c0-.322.09-.603.272-.841.182-.244.423-.434.724-.569.302-.14.634-.21.997-.21.494 0 .899.083 1.215.249.322.166.579.4.771.7l-.747.733a1.7 1.7 0 0 0 -.553-.506 1.37 1.37 0 0 0 -.67-.172c-.166 0-.314.024-.444.07a.579.579 0 0 0 -.288.195.452.452 0 0 0 -.101.296c0 .094.023.177.07.25a.682.682 0 0 0 .194.194c.089.052.195.099.32.14.124.042.262.076.412.102.286.057.543.134.771.233.229.094.424.208.585.343a1.309 1.309 0 0 1 .514 1.06c0 .368-.089.682-.265.941-.177.26-.421.46-.732.6-.312.14-.675.21-1.091.21zm6.261-.078v-5.451h3.676v1.028h-2.531v3.395h2.585v1.028zm.545-2.282v-.996h2.757v.996zm7.514 2.282v-5.451h2.414c.343 0 .649.075.919.226.275.15.493.358.654.623.161.26.241.558.241.895 0 .327-.08.623-.241.888a1.804 1.804 0 0 1 -1.573.864h-1.293v1.955zm3.099 0-1.386-2.468 1.192-.195 1.542 2.671zm-1.978-2.912h1.246c.14 0 .262-.031.366-.094a.663.663 0 0 0 .249-.272.792.792 0 0 0 .094-.39.721.721 0 0 0 -.413-.67.965.965 0 0 0 -.452-.1h-1.09zm8.776 2.912-2.18-5.451h1.246l1.129 2.936c.062.16.117.306.164.436.046.125.085.242.116.35a29.316 29.316 0 0 1 .203.639l-.234.008a18.488 18.488 0 0 1 .468-1.433l1.074-2.936h1.231l-2.196 5.451zm6.993 0v-1.004h.911v-3.443h-.911v-1.004h2.982v1.005h-.903v3.442h.903v1.004zm9.646.078c-.4 0-.768-.067-1.106-.202a2.71 2.71 0 0 1 -.872-.584 2.719 2.719 0 0 1 -.569-.896 3.182 3.182 0 0 1 -.194-1.13c0-.399.07-.768.21-1.105a2.7 2.7 0 0 1 1.48-1.488 2.911 2.911 0 0 1 1.877-.1c.254.067.485.17.693.31.213.136.394.294.545.476l-.732.817a2.002 2.002 0 0 0 -.592-.451 1.542 1.542 0 0 0 -.685-.156c-.224 0-.434.042-.631.125a1.456 1.456 0 0 0 -.506.342c-.146.15-.26.33-.343.538a1.853 1.853 0 0 0 -.125.693c0 .26.039.496.117.709.083.207.2.386.351.537.15.145.329.26.537.343.213.078.446.116.701.116.166 0 .324-.023.475-.07a1.826 1.826 0 0 0 .794-.483l.569.912c-.12.14-.286.267-.499.381a3.182 3.182 0 0 1 -.708.273c-.26.062-.522.093-.787.093zm6.094-.078v-5.451h3.676v1.028h-2.531v3.395h2.586v1.028zm.545-2.282v-.996h2.757v.996zm9.282 2.36c-.509 0-.945-.09-1.309-.272a2.687 2.687 0 0 1 -.926-.81l.732-.826c.254.353.506.595.755.724.254.125.527.187.818.187.161 0 .304-.023.428-.07a.719.719 0 0 0 .304-.194.409.409 0 0 0 .117-.288.53.53 0 0 0 -.211-.413.995.995 0 0 0 -.241-.148 1.66 1.66 0 0 0 -.312-.117 4.994 4.994 0 0 0 -.373-.086 3.78 3.78 0 0 1 -.764-.241 1.92 1.92 0 0 1 -.545-.358 1.382 1.382 0 0 1 -.327-.483 1.835 1.835 0 0 1 -.101-.623c0-.322.091-.603.272-.841.182-.244.424-.434.725-.569.301-.14.633-.21.997-.21.493 0 .898.083 1.215.249.321.166.578.4.771.7l-.748.733a1.69 1.69 0 0 0 -.553-.506 1.37 1.37 0 0 0 -.67-.172c-.166 0-.314.024-.444.07a.588.588 0 0 0 -.288.195.458.458 0 0 0 -.101.296c0 .094.023.177.07.25a.7.7 0 0 0 .195.194c.088.052.194.099.319.14.125.042.262.076.413.102.285.057.542.134.771.233.228.094.423.208.584.343.166.135.293.29.381.467.089.177.133.374.133.592 0 .369-.088.683-.265.942-.176.26-.42.46-.732.6s-.675.21-1.09.21z" fill="#787a82"/></svg>