<svg xmlns="http://www.w3.org/2000/svg" width="212" height="52" viewBox="0 0 212 52" fill="none"><path d="M51.5642 22.326V17.1802L46.502 17.4568C46.3454 16.3505 46.0897 15.2963 45.7505 14.2995L50.0325 11.4552L47.7493 7.5568L43.1228 9.49298C42.494 8.71277 41.7973 8.0004 41.0353 7.35849L43.8326 3.81754L40.0464 1.71698L36.5237 4.66299C35.6052 4.29245 34.6423 3.99498 33.6455 3.77318L34.825 0.284424L30.4047 0L28.2545 3.29566C27.2264 3.3322 26.18 3.43396 25.1154 3.60879L24.8727 0.673224L20.5177 1.92834L19.714 5.07788C18.6989 5.46146 17.7126 5.90245 16.7549 6.3878L15.4006 4.28202L11.5857 6.70614L11.9745 9.37033C11.1186 10.0149 10.2941 10.6959 9.50863 11.4161C9.50602 11.4187 9.50341 11.4213 9.49819 11.4239L7.35066 10.2758L4.38639 13.5167L5.77198 15.4685L5.93637 15.7007C6.29647 15.278 6.65395 14.8527 7.03493 14.4482C8.56925 12.786 10.3045 11.3091 12.1833 10.0383C14.0751 8.78844 16.1156 7.7499 18.271 7.01144C20.4185 6.25733 22.6835 5.80851 24.9719 5.73284C27.2577 5.65717 29.5775 5.97551 31.7381 6.79486C33.896 7.60116 35.887 8.91108 37.4291 10.6489C38.9765 12.379 40.0464 14.5187 40.5839 16.7654C41.1267 19.0173 41.1684 21.3579 40.8631 23.6333C40.2186 28.1971 38.1102 32.4583 35.1903 35.9574C33.7264 37.711 32.0564 39.287 30.2246 40.6491C28.3954 42.0139 26.3966 43.1489 24.283 44.0074C22.172 44.8685 19.9462 45.4583 17.6786 45.7009C15.4163 45.9462 13.0992 45.8523 10.8864 45.286C8.67884 44.7198 6.58872 43.6656 4.87435 42.173C4.01586 41.4267 3.25652 40.5787 2.61461 39.6419C2.60418 39.6236 2.59374 39.6054 2.5833 39.5897L2.27017 39.9942L0 42.9297L2.30149 45.9566L5.23183 43.6369C5.90767 44.2501 6.64874 44.8059 7.4446 45.3069L6.12164 49.0227L9.92353 50.8258L12.2015 47.3683C13.1879 47.6319 14.2264 47.825 15.3093 47.9372L15.4424 52H20.3976L21.3709 47.7623C22.566 47.5771 23.7585 47.3083 24.9354 46.9587L26.9185 50.7031L32.2391 48.5321L31.3336 44.1953C32.4948 43.5299 33.6194 42.7862 34.6971 41.9747L38.5042 44.5032L43.0054 40.336L40.0594 36.9047C40.9362 35.8635 41.7451 34.7754 42.4705 33.6429L47.4805 34.2848L50.0116 28.9904L45.5235 27.2812C45.9123 26.0913 46.2124 24.8884 46.4107 23.6776L51.5747 22.326H51.5642Z" fill="#5365C6"></path><path d="M5.0096 41.9955C6.73702 43.415 8.80627 44.3831 10.9747 44.8736C13.1405 45.3798 15.3976 45.4373 17.6051 45.158C19.8127 44.8815 21.9733 44.2682 24.0164 43.3915C28.0975 41.6249 31.7507 38.8825 34.5766 35.4537C37.4 32.0354 39.404 27.8943 40.0016 23.5131C40.3095 21.3317 40.2782 19.0902 39.7772 16.9557C39.2788 14.8238 38.282 12.8068 36.8338 11.1681C35.3908 9.52416 33.5198 8.27165 31.4662 7.49144C29.41 6.71123 27.1921 6.36418 24.9793 6.39549C22.7639 6.43203 20.5512 6.82604 18.4375 7.53058C16.3161 8.21424 14.2964 9.20581 12.4072 10.3957C10.5206 11.5934 8.76191 13.0051 7.19367 14.6099C6.79704 15.0065 6.42389 15.424 6.04814 15.8415C6.04292 15.8467 6.04031 15.8519 6.03509 15.8572L6.11338 15.9668C6.11338 15.9668 6.1212 15.9589 6.12642 15.9537C7.27978 14.6751 8.56621 13.4904 9.95701 12.4415C10.1579 12.2901 10.3589 12.144 10.5624 11.9979C10.5624 11.9979 10.5702 11.9926 10.5728 11.99C12.9865 10.2757 15.7186 8.94748 18.628 8.20641C28.9143 5.58658 37.8436 11.3351 37.3713 21.9684C36.8651 33.361 26.0648 43.6942 14.7453 44.2187C11.6322 44.3622 8.8976 43.7177 6.66396 42.4939C5.14529 41.6615 3.85625 40.5603 2.82815 39.2556L2.65332 39.4826C2.67159 39.5113 2.68985 39.5426 2.70812 39.5713C3.36829 40.4716 4.14328 41.2935 5.0096 42.0007V41.9955Z" fill="white"></path><path d="M15.7477 23.3228L10.2341 17.2012C10.2341 17.2012 6.64355 21.6606 10.8682 29.4079L18.0857 22.8714L15.7477 23.3228ZM15.1397 24.5753L10.6829 19.6201C10.5811 19.5105 10.5159 19.3748 10.4924 19.2287L10.3541 18.4328L15.479 24.1239L15.6407 24.0926L15.1371 24.5753H15.1397Z" fill="white"></path><path d="M25.7886 39.0753C24.964 39.6754 24.1081 40.2234 23.2235 40.7166L22.8791 39.7876C22.6025 39.0152 23.0044 38.1594 23.7793 37.8828C24.5517 37.6062 25.4076 38.008 25.6842 38.783L25.7912 39.0753H25.7886Z" fill="white"></path><path d="M26.9186 15.0691C23.5264 9.59981 16.7368 11.4133 16.7368 11.4133L21.9608 16.8461L20.6431 21.5482L9.92627 31.2526C10.5134 32.8834 15.1685 32.1711 17.3787 34.7257C18.7617 36.32 20.1812 38.8094 21.5094 41.5727C21.9765 41.3613 22.4435 41.1343 22.8976 40.889L22.5349 39.9105C22.1904 38.945 22.694 37.883 23.6543 37.5386C24.6198 37.1941 25.6818 37.6978 26.0262 38.658L26.0941 38.8485C26.402 38.6163 26.7073 38.3736 27.0021 38.1309L26.856 37.7447C25.5513 34.0994 25.974 30 26.3837 26.0312C26.7934 22.0492 27.1822 18.2917 25.6661 15.8441C24.1683 13.4304 20.6065 12.1596 18.626 12.0579C20.6613 11.9196 24.0874 12.2562 26.1332 15.5544C27.7484 18.1612 27.3518 22.0127 26.9317 26.0886C26.5272 29.9948 26.1097 34.0316 27.3753 37.5621L27.451 37.7552C27.7015 37.5386 27.9441 37.322 28.1868 37.095C25.7992 30.0966 30.2848 20.5045 26.916 15.0717L26.9186 15.0691ZM14.1613 32.1215C12.7053 31.8214 11.2492 31.2734 11.2492 31.2734L13.1567 29.5121L16.2697 30.3654L14.1613 32.1215ZM21.6477 33.4705C21.5981 33.5227 21.5381 33.5593 21.4754 33.5827C21.3137 33.6402 21.1284 33.6062 20.9979 33.4784L17.3891 29.9479C17.2091 29.7704 17.2065 29.4808 17.3839 29.2981C17.5614 29.1181 17.851 29.1102 18.0337 29.2903L21.6424 32.8208C21.8225 32.9982 21.8251 33.2879 21.6477 33.4705ZM22.8349 32.3172C22.7828 32.3694 22.7253 32.4059 22.6627 32.4294C22.5009 32.4868 22.3157 32.4529 22.1852 32.325L18.5764 28.7945C18.3964 28.6171 18.3938 28.3274 18.5712 28.1448C18.746 27.9647 19.0383 27.9621 19.2209 28.1369L22.8271 31.6674C23.0072 31.8449 23.015 32.1345 22.8349 32.3172ZM24.124 31.3569C24.0718 31.4091 24.0144 31.4457 23.9518 31.4691C23.79 31.5265 23.6047 31.4926 23.4742 31.3622L19.8655 27.8342C19.6854 27.6568 19.6828 27.3672 19.8602 27.1819C20.0351 27.0019 20.3273 26.9992 20.51 27.1767L24.1162 30.7072C24.2962 30.882 24.304 31.1743 24.124 31.3569ZM26.1671 19.6303C26.1671 19.6303 26.2011 20.2801 26.0941 21.5039L21.4233 21.2429L21.8669 19.6303H26.1671Z" fill="white"></path><path d="M63.8057 28.4575V10.2856H67.3622L73.956 21.033L71.6456 21.007L78.3432 10.2856H81.77V28.4575H77.9538V22.305C77.9538 20.7301 77.9885 19.311 78.0577 18.0476C78.1442 16.7842 78.2827 15.5381 78.473 14.3094L78.9144 15.5295L73.5926 23.7588H71.8533L66.6613 15.5814L67.0766 14.3094C67.2843 15.4689 67.4228 16.6631 67.492 17.8918C67.5785 19.1206 67.6218 20.5917 67.6218 22.305V28.4575H63.8057Z" fill="white"></path><path d="M85.3537 28.4575L92.4926 10.2856H95.9713L103.058 28.4575H99.0865L95.4002 18.6706C95.2963 18.3764 95.1665 18.013 95.0108 17.5803C94.8723 17.1476 94.7252 16.689 94.5694 16.2044C94.4137 15.7198 94.2666 15.2612 94.1281 14.8286C94.007 14.3786 93.9031 14.0151 93.8166 13.7382L94.5175 13.7123C94.4137 14.093 94.2925 14.4997 94.1541 14.9324C94.0329 15.3478 93.8945 15.7804 93.7387 16.2304C93.6003 16.6804 93.4532 17.113 93.2974 17.5284C93.159 17.9438 93.0205 18.3418 92.882 18.7226L89.2217 28.4575H85.3537ZM88.6765 24.6414L89.9745 21.4743H98.2558L99.5797 24.6414H88.6765Z" fill="white"></path><path d="M111.06 28.7171C110.42 28.7171 109.814 28.6393 109.243 28.4835C108.689 28.345 108.17 28.1287 107.686 27.8345C107.218 27.5403 106.794 27.1942 106.413 26.7961C106.033 26.3807 105.713 25.9308 105.453 25.4462L107.737 23.0579C108.118 23.5944 108.464 24.0184 108.776 24.3299C109.105 24.6241 109.425 24.8318 109.736 24.9529C110.065 25.0741 110.411 25.1347 110.775 25.1347C111.259 25.1347 111.683 25.0222 112.047 24.7972C112.41 24.5722 112.696 24.2607 112.903 23.8626C113.111 23.4646 113.215 23.0146 113.215 22.5127V13.7382H109.866V10.2856H119.809V13.7382H117.005V22.9281C117.005 23.7934 116.858 24.5809 116.564 25.2904C116.27 26 115.854 26.6057 115.318 27.1076C114.781 27.6095 114.15 28.0076 113.423 28.3018C112.713 28.5787 111.926 28.7171 111.06 28.7171Z" fill="white"></path><path d="M124.824 28.4575V10.2856H137.077V13.7123H128.64V25.0308H137.259V28.4575H124.824ZM126.641 20.8513V17.5284H135.831V20.8513H126.641Z" fill="white"></path><path d="M153.14 28.4575L147.533 20.3321L140.29 10.2856H145.092L150.596 18.3072L157.943 28.4575H153.14ZM140.16 28.4575L147.091 18.5408L150.051 20.6436L144.703 28.4575H140.16ZM151.011 20.0465L148.078 18.0216L153.14 10.2856H157.683L151.011 20.0465Z" fill="white"></path><path d="M165.32 28.4575V13.7902H160.076V10.2856H174.666V13.7902H169.214V28.4575H165.32Z" fill="white"></path><path d="M178.454 28.4575V25.1087H181.491V13.6344H178.454V10.2856H188.396V13.6344H185.385V25.1087H188.396V28.4575H178.454Z" fill="white"></path><path d="M201.263 28.7171C199.931 28.7171 198.702 28.4922 197.577 28.0422C196.469 27.5749 195.5 26.9259 194.669 26.0952C193.856 25.2472 193.224 24.252 192.774 23.1098C192.342 21.9675 192.125 20.7128 192.125 19.3456C192.125 18.013 192.359 16.7842 192.826 15.6593C193.294 14.517 193.951 13.5219 194.799 12.6739C195.647 11.8259 196.634 11.1682 197.759 10.7009C198.901 10.2336 200.138 10 201.471 10C202.336 10 203.184 10.1211 204.015 10.3634C204.863 10.5884 205.633 10.9346 206.325 11.4018C207.035 11.8518 207.641 12.3797 208.143 12.9854L205.702 15.7112C205.097 15.0535 204.439 14.5516 203.729 14.2055C203.02 13.8594 202.258 13.6863 201.445 13.6863C200.701 13.6863 200 13.8248 199.342 14.1017C198.702 14.3613 198.139 14.742 197.655 15.2439C197.17 15.7458 196.79 16.3429 196.513 17.0352C196.236 17.7274 196.097 18.4976 196.097 19.3456C196.097 20.2109 196.227 20.9984 196.487 21.7079C196.764 22.4002 197.153 22.9973 197.655 23.4992C198.157 23.9838 198.754 24.3645 199.446 24.6414C200.156 24.901 200.934 25.0308 201.783 25.0308C202.336 25.0308 202.864 24.9529 203.366 24.7972C203.885 24.6414 204.37 24.4251 204.82 24.1482C205.27 23.8713 205.668 23.5511 206.014 23.1877L207.909 26.225C207.511 26.6923 206.957 27.1163 206.248 27.497C205.538 27.8778 204.751 28.1806 203.885 28.4056C203.02 28.6133 202.146 28.7171 201.263 28.7171Z" fill="white"></path><path d="M61.5059 42.7354L63.6476 37.2838H64.6911L66.8173 42.7354H65.6257L64.5198 39.7994C64.4887 39.7111 64.4497 39.6021 64.403 39.4723C64.3615 39.3425 64.3173 39.2049 64.2706 39.0595C64.2239 38.9141 64.1797 38.7765 64.1382 38.6467C64.1019 38.5117 64.0707 38.4027 64.0447 38.3196L64.255 38.3119C64.2239 38.4261 64.1875 38.5481 64.146 38.6779C64.1096 38.8025 64.0681 38.9323 64.0214 39.0673C63.9798 39.2023 63.9357 39.3321 63.889 39.4567C63.8474 39.5813 63.8059 39.7007 63.7644 39.8149L62.6663 42.7354H61.5059ZM62.5027 41.5906L62.8921 40.6405H65.3765L65.7737 41.5906H62.5027Z" fill="white"></path><path d="M72.7962 42.7822C72.3549 42.7822 71.9603 42.6913 71.6124 42.5096C71.2697 42.3227 70.9998 42.0683 70.8025 41.7464C70.6052 41.4193 70.5065 41.0506 70.5065 40.6405V37.276H71.6747V40.5704C71.6747 40.7884 71.724 40.9857 71.8227 41.1623C71.9265 41.3336 72.0641 41.4712 72.2355 41.575C72.4068 41.6789 72.5937 41.7308 72.7962 41.7308C73.0091 41.7308 73.2012 41.6789 73.3725 41.575C73.549 41.4712 73.6866 41.3336 73.7853 41.1623C73.8891 40.9857 73.941 40.7884 73.941 40.5704V37.276H75.0703V40.6405C75.0703 41.0506 74.9716 41.4193 74.7743 41.7464C74.5822 42.0683 74.3149 42.3227 73.9722 42.5096C73.6295 42.6913 73.2375 42.7822 72.7962 42.7822Z" fill="white"></path><path d="M80.6843 42.7354V38.3352H79.1112V37.2838H83.488V38.3352H81.8525V42.7354H80.6843Z" fill="white"></path><path d="M89.7467 42.8133C89.3469 42.8133 88.9757 42.7432 88.633 42.603C88.2955 42.4629 88.0022 42.2682 87.753 42.0189C87.5089 41.7645 87.3168 41.466 87.1767 41.1233C87.0417 40.7806 86.9742 40.4042 86.9742 39.9941C86.9742 39.5891 87.0417 39.2153 87.1767 38.8726C87.3168 38.5299 87.5089 38.2314 87.753 37.977C88.0022 37.7226 88.2955 37.5253 88.633 37.3851C88.9757 37.2449 89.3469 37.1748 89.7467 37.1748C90.1465 37.1748 90.5125 37.2449 90.8448 37.3851C91.1823 37.5253 91.4756 37.7226 91.7248 37.977C91.9741 38.2314 92.1662 38.5299 92.3012 38.8726C92.4413 39.2153 92.5114 39.5917 92.5114 40.0018C92.5114 40.4016 92.4413 40.7729 92.3012 41.1155C92.1662 41.4582 91.9741 41.7567 91.7248 42.0111C91.4756 42.2656 91.1823 42.4629 90.8448 42.603C90.5125 42.7432 90.1465 42.8133 89.7467 42.8133ZM89.7467 41.7074C89.9751 41.7074 90.1854 41.6659 90.3775 41.5828C90.5696 41.4945 90.7358 41.3751 90.876 41.2246C91.0213 41.0688 91.133 40.8871 91.2108 40.6794C91.2887 40.4717 91.3277 40.2459 91.3277 40.0018C91.3277 39.7526 91.2887 39.5242 91.2108 39.3165C91.133 39.1088 91.0213 38.9271 90.876 38.7713C90.7358 38.6156 90.5696 38.4962 90.3775 38.4131C90.1854 38.3248 89.9751 38.2807 89.7467 38.2807C89.5183 38.2807 89.3054 38.3248 89.1081 38.4131C88.916 38.4962 88.7472 38.6156 88.6019 38.7713C88.4617 38.9219 88.3526 39.1036 88.2748 39.3165C88.1969 39.5242 88.1579 39.7526 88.1579 40.0018C88.1579 40.3289 88.2254 40.6223 88.3604 40.8819C88.5006 41.1363 88.6901 41.3388 88.929 41.4894C89.1678 41.6347 89.4404 41.7074 89.7467 41.7074Z" fill="white"></path><path d="M96.6841 42.7354V37.2838H99.0984C99.441 37.2838 99.7474 37.3591 100.017 37.5097C100.293 37.6603 100.511 37.8679 100.672 38.1327C100.832 38.3923 100.913 38.6909 100.913 39.0283C100.913 39.3554 100.832 39.6514 100.672 39.9162C100.511 40.181 100.293 40.3912 100.017 40.547C99.7474 40.7028 99.441 40.7806 99.0984 40.7806H97.8056V42.7354H96.6841ZM99.7837 42.7354L98.3975 40.2666L99.589 40.0719L101.131 42.7432L99.7837 42.7354ZM97.8056 39.8227H99.0516C99.1918 39.8227 99.3138 39.7916 99.4177 39.7293C99.5267 39.6618 99.6098 39.5709 99.6669 39.4567C99.7292 39.3425 99.7604 39.2127 99.7604 39.0673C99.7604 38.9167 99.724 38.7843 99.6513 38.6701C99.5786 38.5507 99.4774 38.4598 99.3476 38.3975C99.2178 38.33 99.0672 38.2963 98.8959 38.2963H97.8056V39.8227Z" fill="white"></path><path d="M105.26 42.7354V37.2838H108.936V38.3119H106.405V41.7074H108.99V42.7354H105.26ZM105.805 40.4535V39.4567H108.562V40.4535H105.805Z" fill="white"></path><path d="M113.319 42.7354V37.2838H115.632C115.959 37.2838 116.252 37.3617 116.512 37.5175C116.771 37.668 116.977 37.8757 117.127 38.1405C117.283 38.4001 117.361 38.6961 117.361 39.0283C117.361 39.3658 117.283 39.6722 117.127 39.9473C116.977 40.2173 116.771 40.4328 116.512 40.5937C116.252 40.7495 115.959 40.8274 115.632 40.8274H114.487V42.7354H113.319ZM114.471 39.7682H115.507C115.627 39.7682 115.736 39.7371 115.834 39.6748C115.933 39.6124 116.013 39.5268 116.076 39.4177C116.138 39.3087 116.169 39.1841 116.169 39.0439C116.169 38.9037 116.138 38.7817 116.076 38.6779C116.013 38.574 115.933 38.491 115.834 38.4287C115.736 38.3664 115.627 38.3352 115.507 38.3352H114.471V39.7682Z" fill="white"></path><path d="M120.366 42.7354L122.508 37.2838H123.551L125.677 42.7354H124.486L123.38 39.7994C123.349 39.7111 123.31 39.6021 123.263 39.4723C123.222 39.3425 123.178 39.2049 123.131 39.0595C123.084 38.9141 123.04 38.7765 122.998 38.6467C122.962 38.5117 122.931 38.4027 122.905 38.3196L123.115 38.3119C123.084 38.4261 123.048 38.5481 123.006 38.6779C122.97 38.8025 122.928 38.9323 122.882 39.0673C122.84 39.2023 122.796 39.3321 122.749 39.4567C122.708 39.5813 122.666 39.7007 122.625 39.8149L121.526 42.7354H120.366ZM121.363 41.5906L121.752 40.6405H124.237L124.634 41.5906H121.363Z" fill="white"></path><path d="M129.425 42.7354V41.7308H130.337V38.2885H129.425V37.2838H132.408V38.2885H131.505V41.7308H132.408V42.7354H129.425Z" fill="white"></path><path d="M136.803 42.7354V37.2838H139.217C139.56 37.2838 139.866 37.3591 140.136 37.5097C140.411 37.6603 140.629 37.8679 140.79 38.1327C140.951 38.3923 141.032 38.6909 141.032 39.0283C141.032 39.3554 140.951 39.6514 140.79 39.9162C140.629 40.181 140.411 40.3912 140.136 40.547C139.866 40.7028 139.56 40.7806 139.217 40.7806H137.924V42.7354H136.803ZM139.903 42.7354L138.516 40.2666L139.708 40.0719L141.25 42.7432L139.903 42.7354ZM137.924 39.8227H139.17C139.311 39.8227 139.433 39.7916 139.536 39.7293C139.646 39.6618 139.729 39.5709 139.786 39.4567C139.848 39.3425 139.879 39.2127 139.879 39.0673C139.879 38.9167 139.843 38.7843 139.77 38.6701C139.697 38.5507 139.596 38.4598 139.466 38.3975C139.337 38.33 139.186 38.2963 139.015 38.2963H137.924V39.8227Z" fill="white"></path><path d="M152.642 42.8133C152.134 42.8133 151.697 42.7225 151.334 42.5407C150.976 42.3538 150.667 42.0838 150.407 41.7308L151.139 40.9053C151.394 41.2583 151.646 41.4997 151.895 41.6295C152.149 41.7541 152.422 41.8164 152.712 41.8164C152.873 41.8164 153.016 41.7931 153.141 41.7464C153.271 41.6996 153.372 41.6347 153.445 41.5517C153.522 41.4686 153.561 41.3725 153.561 41.2635C153.561 41.1804 153.543 41.1051 153.507 41.0376C153.471 40.965 153.419 40.9027 153.351 40.8507C153.284 40.7936 153.203 40.7443 153.11 40.7028C153.016 40.656 152.912 40.6171 152.798 40.5859C152.684 40.5548 152.559 40.5262 152.424 40.5003C152.134 40.438 151.879 40.3575 151.661 40.2589C151.443 40.1602 151.261 40.0408 151.116 39.9006C150.971 39.7604 150.862 39.5995 150.789 39.4177C150.721 39.2308 150.688 39.0232 150.688 38.7947C150.688 38.4728 150.778 38.1924 150.96 37.9536C151.142 37.7096 151.383 37.5201 151.684 37.3851C151.986 37.2449 152.318 37.1748 152.681 37.1748C153.175 37.1748 153.58 37.2579 153.896 37.424C154.218 37.5902 154.475 37.8238 154.667 38.1249L153.92 38.857C153.759 38.6338 153.574 38.465 153.367 38.3508C153.159 38.2366 152.936 38.1795 152.697 38.1795C152.531 38.1795 152.383 38.2028 152.253 38.2495C152.128 38.2911 152.032 38.356 151.965 38.4442C151.897 38.5273 151.864 38.626 151.864 38.7402C151.864 38.8336 151.887 38.9167 151.934 38.9894C151.98 39.0621 152.045 39.127 152.128 39.1841C152.217 39.236 152.323 39.2828 152.448 39.3243C152.572 39.3658 152.71 39.3996 152.86 39.4255C153.146 39.4826 153.403 39.5605 153.631 39.6592C153.86 39.7526 154.055 39.8669 154.216 40.0018C154.382 40.1368 154.509 40.2926 154.597 40.4691C154.685 40.6457 154.73 40.8429 154.73 41.061C154.73 41.4296 154.641 41.7438 154.465 42.0034C154.288 42.263 154.044 42.4629 153.733 42.603C153.421 42.7432 153.058 42.8133 152.642 42.8133Z" fill="white"></path><path d="M158.903 42.7354V37.2838H162.579V38.3119H160.048V41.7074H162.633V42.7354H158.903ZM159.448 40.4535V39.4567H162.205V40.4535H159.448Z" fill="white"></path><path d="M166.962 42.7354V37.2838H169.376C169.719 37.2838 170.025 37.3591 170.295 37.5097C170.57 37.6603 170.788 37.8679 170.949 38.1327C171.11 38.3923 171.19 38.6909 171.19 39.0283C171.19 39.3554 171.11 39.6514 170.949 39.9162C170.788 40.181 170.57 40.3912 170.295 40.547C170.025 40.7028 169.719 40.7806 169.376 40.7806H168.083V42.7354H166.962ZM170.061 42.7354L168.675 40.2666L169.867 40.0719L171.409 42.7432L170.061 42.7354ZM168.083 39.8227H169.329C169.469 39.8227 169.591 39.7916 169.695 39.7293C169.804 39.6618 169.887 39.5709 169.944 39.4567C170.007 39.3425 170.038 39.2127 170.038 39.0673C170.038 38.9167 170.002 38.7843 169.929 38.6701C169.856 38.5507 169.755 38.4598 169.625 38.3975C169.495 38.33 169.345 38.2963 169.173 38.2963H168.083V39.8227Z" fill="white"></path><path d="M176.859 42.7354L174.679 37.2838H175.925L177.054 40.2199C177.116 40.3809 177.171 40.5262 177.218 40.656C177.264 40.7806 177.303 40.8975 177.334 41.0065C177.371 41.1103 177.405 41.2142 177.436 41.318C177.467 41.4167 177.501 41.5257 177.537 41.6451L177.303 41.6529C177.35 41.4868 177.394 41.3362 177.436 41.2012C177.477 41.061 177.524 40.9156 177.576 40.7651C177.628 40.6093 177.693 40.4276 177.771 40.2199L178.845 37.2838H180.076L177.88 42.7354H176.859Z" fill="white"></path><path d="M183.852 42.7354V41.7308H184.763V38.2885H183.852V37.2838H186.834V38.2885H185.931V41.7308H186.834V42.7354H183.852Z" fill="white"></path><path d="M193.498 42.8133C193.098 42.8133 192.73 42.7458 192.392 42.6108C192.06 42.4706 191.769 42.2759 191.52 42.0267C191.276 41.7723 191.086 41.4738 190.951 41.1311C190.822 40.7884 190.757 40.412 190.757 40.0018C190.757 39.6021 190.827 39.2334 190.967 38.896C191.107 38.5533 191.305 38.2547 191.559 38.0003C191.813 37.7459 192.109 37.5486 192.447 37.4084C192.789 37.2683 193.161 37.1982 193.56 37.1982C193.82 37.1982 194.074 37.2345 194.324 37.3072C194.578 37.3747 194.809 37.4785 195.017 37.6187C195.23 37.7537 195.411 37.9121 195.562 38.0938L194.83 38.9115C194.648 38.7142 194.451 38.5637 194.238 38.4598C194.025 38.356 193.797 38.3041 193.553 38.3041C193.329 38.3041 193.119 38.3456 192.922 38.4287C192.73 38.5066 192.561 38.6208 192.416 38.7713C192.27 38.9219 192.156 39.101 192.073 39.3087C191.99 39.5164 191.948 39.7474 191.948 40.0018C191.948 40.2614 191.987 40.4977 192.065 40.7106C192.148 40.9182 192.265 41.0974 192.416 41.2479C192.566 41.3933 192.745 41.5075 192.953 41.5906C193.166 41.6685 193.399 41.7074 193.654 41.7074C193.82 41.7074 193.978 41.6841 194.129 41.6373C194.285 41.5906 194.43 41.5257 194.565 41.4426C194.7 41.3596 194.82 41.2635 194.923 41.1545L195.492 42.0657C195.372 42.2058 195.206 42.3331 194.993 42.4473C194.781 42.5615 194.544 42.6524 194.285 42.7199C194.025 42.7822 193.763 42.8133 193.498 42.8133Z" fill="white"></path><path d="M199.592 42.7354V37.2838H203.268V38.3119H200.737V41.7074H203.323V42.7354H199.592ZM200.137 40.4535V39.4567H202.894V40.4535H200.137Z" fill="white"></path><path d="M209.419 42.8133C208.91 42.8133 208.474 42.7225 208.11 42.5407C207.752 42.3538 207.443 42.0838 207.184 41.7308L207.916 40.9053C208.17 41.2583 208.422 41.4997 208.671 41.6295C208.925 41.7541 209.198 41.8164 209.489 41.8164C209.65 41.8164 209.793 41.7931 209.917 41.7464C210.047 41.6996 210.148 41.6347 210.221 41.5517C210.299 41.4686 210.338 41.3725 210.338 41.2635C210.338 41.1804 210.319 41.1051 210.283 41.0376C210.247 40.965 210.195 40.9027 210.127 40.8507C210.06 40.7936 209.979 40.7443 209.886 40.7028C209.793 40.656 209.689 40.6171 209.574 40.5859C209.46 40.5548 209.336 40.5262 209.201 40.5003C208.91 40.438 208.655 40.3575 208.437 40.2589C208.219 40.1602 208.038 40.0408 207.892 39.9006C207.747 39.7604 207.638 39.5995 207.565 39.4177C207.498 39.2308 207.464 39.0232 207.464 38.7947C207.464 38.4728 207.555 38.1924 207.736 37.9536C207.918 37.7096 208.16 37.5201 208.461 37.3851C208.762 37.2449 209.094 37.1748 209.458 37.1748C209.951 37.1748 210.356 37.2579 210.673 37.424C210.994 37.5902 211.251 37.8238 211.444 38.1249L210.696 38.857C210.535 38.6338 210.351 38.465 210.143 38.3508C209.935 38.2366 209.712 38.1795 209.473 38.1795C209.307 38.1795 209.159 38.2028 209.029 38.2495C208.905 38.2911 208.809 38.356 208.741 38.4442C208.674 38.5273 208.64 38.626 208.64 38.7402C208.64 38.8336 208.663 38.9167 208.71 38.9894C208.757 39.0621 208.822 39.127 208.905 39.1841C208.993 39.236 209.099 39.2828 209.224 39.3243C209.349 39.3658 209.486 39.3996 209.637 39.4255C209.922 39.4826 210.179 39.5605 210.408 39.6592C210.636 39.7526 210.831 39.8669 210.992 40.0018C211.158 40.1368 211.285 40.2926 211.373 40.4691C211.462 40.6457 211.506 40.8429 211.506 41.061C211.506 41.4296 211.418 41.7438 211.241 42.0034C211.065 42.263 210.821 42.4629 210.509 42.603C210.197 42.7432 209.834 42.8133 209.419 42.8133Z" fill="white"></path></svg>